<?xml version="1.0" standalone="no"?>
<!DOCTYPE svg PUBLIC "-//W3C//DTD SVG 20010904//EN"
 "http://www.w3.org/TR/2001/REC-SVG-20010904/DTD/svg10.dtd">
<svg version="1.0" xmlns="http://www.w3.org/2000/svg"
 width="307.000000pt" height="164.000000pt" viewBox="0 0 307.000000 164.000000"
 preserveAspectRatio="xMidYMid meet">

<g transform="translate(0.000000,164.000000) scale(0.100000,-0.100000)"
fill="#000000" stroke="none">
<path d="M0 1515 l0 -125 28 -6 c15 -3 63 -22 107 -41 44 -19 89 -38 100 -43
11 -5 50 -11 87 -14 36 -4 86 -15 111 -26 24 -11 105 -31 178 -45 74 -14 159
-32 189 -41 50 -15 96 -23 241 -40 36 -5 70 2 157 31 62 20 115 41 118 46 9
15 194 -1 227 -19 15 -9 27 -19 27 -23 0 -4 15 -12 33 -20 17 -7 52 -26 76
-42 38 -26 48 -29 95 -23 28 4 58 7 66 7 35 1 206 31 221 39 9 5 35 6 58 3 22
-3 41 -2 41 3 0 5 12 9 28 10 38 2 235 41 302 60 51 15 59 15 94 0 81 -34 209
-7 307 65 78 57 113 72 151 64 l28 -7 0 156 0 156 -1535 0 -1535 0 0 -125z"/>
<path d="M3010 1300 c14 -10 27 -17 29 -14 6 5 -31 33 -44 33 -5 1 1 -8 15
-19z"/>
<path d="M0 580 l0 -580 1535 0 1535 0 0 445 c0 349 -3 445 -12 445 -7 0 -53
31 -103 68 -141 106 -159 115 -211 109 -24 -2 -44 -1 -44 4 0 13 -23 11 -64
-6 -33 -14 -35 -17 -24 -38 7 -12 17 -25 23 -29 5 -4 7 -9 4 -12 -6 -6 -69 21
-79 33 -3 3 -60 7 -128 9 -102 3 -123 1 -128 -12 -3 -8 -11 -13 -18 -10 -6 2
-22 -5 -34 -17 -18 -16 -31 -20 -58 -15 -21 4 -34 3 -34 -4 0 -5 -9 -10 -20
-10 -11 0 -20 5 -20 11 0 11 -104 9 -114 -2 -2 -2 -6 -20 -9 -39 -7 -49 -17
-70 -34 -70 -8 0 -11 -5 -8 -10 3 -6 -4 -10 -17 -11 -23 0 -23 0 -2 -11 23
-11 44 -66 44 -117 0 -17 5 -31 11 -31 5 0 7 -4 4 -10 -4 -6 8 -10 29 -10 29
0 36 -4 36 -20 0 -13 -7 -20 -20 -20 -11 0 -20 -3 -20 -7 0 -5 -35 -9 -78 -11
-42 -1 -72 1 -66 5 7 5 14 19 15 33 3 15 13 27 29 32 l25 8 -26 -4 c-25 -3
-27 1 -33 43 -3 25 -13 93 -22 151 l-16 106 -34 10 c-19 6 -36 8 -39 5 -6 -11
-56 -5 -63 6 -4 6 -32 24 -62 41 -30 16 -54 35 -53 41 2 6 -2 11 -8 11 -6 0
-19 10 -29 22 -15 19 -30 23 -94 26 -61 3 -77 1 -82 -11 -4 -12 -15 -14 -40
-10 -33 5 -35 4 -29 -19 5 -20 0 -29 -32 -51 -25 -17 -52 -27 -74 -27 -20 0
-39 -3 -43 -7 -14 -14 -155 -10 -161 4 -8 23 -24 14 -34 -19 -5 -18 -10 -27
-10 -19 -1 11 -4 11 -16 1 -12 -10 -15 -10 -15 2 0 11 -14 17 -46 21 -25 2
-50 12 -57 20 -7 9 -46 23 -87 31 -41 8 -100 22 -130 31 -82 24 -179 15 -260
-24 -36 -17 -78 -31 -95 -31 l-30 0 30 25 c28 23 29 26 13 38 -14 11 -15 16
-5 26 17 17 -19 44 -42 32 -36 -19 -129 -23 -160 -7 -65 34 -61 75 -61 -564z
m1555 384 c54 -35 208 -188 218 -216 11 -31 -19 -20 -55 19 -18 20 -54 58 -80
84 -27 26 -48 52 -48 58 0 6 -5 11 -11 11 -5 0 -7 -4 -4 -10 9 -15 -100 -18
-155 -5 -24 6 -23 8 18 26 32 15 47 17 61 9 30 -16 33 -12 16 20 -9 17 -20 30
-25 30 -6 0 -10 5 -10 11 0 11 1 11 75 -37z m-15 -149 c7 -9 11 -18 8 -20 -9
-10 -38 7 -38 21 0 18 14 18 30 -1z m-502 -54 c11 -7 10 -10 -3 -15 -37 -14
-130 -2 -119 15 7 11 105 11 122 0z m-136 -46 c-2 -11 -11 -31 -21 -44 l-18
-24 -77 17 c-42 10 -76 20 -76 24 0 4 3 17 6 29 6 21 11 22 98 20 87 -2 92 -3
88 -22z m928 15 c0 -5 -7 -10 -16 -10 -8 0 -12 5 -9 10 3 6 10 10 16 10 5 0 9
-4 9 -10z m30 0 c0 -5 -4 -10 -10 -10 -5 0 -10 5 -10 10 0 6 5 10 10 10 6 0
10 -4 10 -10z m-605 -18 c-3 -3 -11 0 -18 7 -9 10 -8 11 6 5 10 -3 15 -9 12
-12z m295 2 c0 -2 -17 -4 -37 -3 -33 1 -35 2 -13 8 23 7 50 4 50 -5z m139 -22
c7 -7 28 -12 45 -10 26 2 32 -1 34 -19 2 -15 -2 -24 -12 -24 -9 -1 -22 -2 -28
-3 -7 -1 -16 -8 -20 -16 -4 -10 -7 -6 -7 12 -1 15 -5 29 -11 33 -5 3 -19 20
-32 38 -19 28 -20 30 -3 17 11 -8 26 -21 34 -28z m-1389 24 c0 -3 -4 -8 -10
-11 -5 -3 -10 -1 -10 4 0 6 5 11 10 11 6 0 10 -2 10 -4z m635 -26 c3 -5 1 -10
-4 -10 -6 0 -11 5 -11 10 0 6 2 10 4 10 3 0 8 -4 11 -10z m628 -24 c18 -8 47
-30 65 -50 l34 -36 -32 0 c-17 0 -37 6 -43 13 -7 7 -28 30 -46 50 -37 39 -31
46 22 23z m244 -18 c-3 -7 -5 -2 -5 12 0 14 2 19 5 13 2 -7 2 -19 0 -25z
m-710 0 c-3 -8 -6 -5 -6 6 -1 11 2 17 5 13 3 -3 4 -12 1 -19z m33 18 c0 -3 -4
-8 -10 -11 -5 -3 -10 -1 -10 4 0 6 5 11 10 11 6 0 10 -2 10 -4z m104 -10 c-21
-15 -30 -14 -19 3 3 6 14 11 23 11 13 0 13 -2 -4 -14z m-1 -50 c-18 -36 -51
-54 -74 -41 -8 6 -5 13 12 26 13 10 29 19 34 19 6 0 17 9 25 20 21 30 23 17 3
-24z m213 21 c2 -7 27 -27 54 -43 27 -16 48 -33 46 -39 -6 -17 -44 -6 -87 25
-23 16 -50 30 -61 30 -20 0 -25 26 -5 33 23 10 48 7 53 -6z m-136 -27 c0 -5
-5 -10 -11 -10 -5 0 -7 5 -4 10 3 6 8 10 11 10 2 0 4 -4 4 -10z m77 -17 c3 -7
-4 -9 -16 -6 -12 3 -18 9 -15 15 7 11 26 6 31 -9z m-72 -40 c-5 -10 -8 -21 -7
-25 3 -12 -40 -20 -50 -10 -6 6 1 16 21 28 17 10 31 23 31 28 0 5 3 7 6 3 4
-3 3 -14 -1 -24z m123 -32 c3 -10 -4 -12 -29 -6 -61 12 -69 16 -69 35 0 17 2
17 47 1 25 -9 48 -22 51 -30z"/>
<path d="M2710 1149 c0 -5 15 -16 33 -25 40 -21 149 -94 162 -109 16 -18 112
-74 140 -81 25 -6 25 -6 25 60 0 52 -3 66 -15 66 -8 0 -15 6 -15 13 0 7 -15
13 -35 14 -19 1 -45 4 -57 5 -13 1 -34 -1 -48 -5 -14 -4 2 6 35 23 82 40 113
37 119 -12 1 -3 4 -10 9 -14 4 -4 7 11 7 34 l0 41 -37 -3 c-21 -2 -60 -10 -86
-19 -35 -11 -45 -12 -38 -3 9 10 0 11 -41 5 -36 -6 -68 -4 -105 5 -29 8 -53
10 -53 5z"/>
<path d="M2375 1074 c-33 -7 -113 -26 -177 -41 -65 -14 -116 -28 -114 -31 5
-4 368 77 375 84 7 7 -21 3 -84 -12z"/>
<path d="M1997 989 c7 -7 15 -10 18 -7 3 3 -2 9 -12 12 -14 6 -15 5 -6 -5z"/>
</g>
</svg>
