<svg width="60" height="60" viewBox="0 0 60 60" fill="none" xmlns="http://www.w3.org/2000/svg">
<g clip-path="url(#clip0_635_44)">
<path d="M0 28.2422H7.98523V31.7578H0V28.2422Z" fill="#070707"/>
<path d="M1.61179 39.8571L8.98911 36.8015L10.3345 40.0493L2.95715 43.1054L1.61179 39.8571Z" fill="#070707"/>
<path d="M10.0296 52.4565L7.54349 49.9704L13.19 44.3243L15.6757 46.81L10.0296 52.4565Z" fill="#070707"/>
<path d="M49.9704 52.4565L44.3239 46.8105L46.81 44.3243L52.4561 49.9709L49.9704 52.4565Z" fill="#070707"/>
<path d="M57.0433 43.103L49.666 40.047L51.0114 36.7987L58.3887 39.8547L57.0433 43.103Z" fill="#070707"/>
<path d="M52.0148 28.2422H60V31.7578H52.0148V28.2422Z" fill="#070707"/>
<path d="M58.3878 20.1438L51.0104 23.1999L49.6651 19.952L57.0424 16.896L58.3878 20.1438Z" fill="#070707"/>
<path d="M49.9699 7.54346L52.4561 10.0296L46.8095 15.6756L44.3239 13.19L49.9699 7.54346Z" fill="#070707"/>
<path d="M39.857 1.61182L43.1053 2.95718L40.0493 10.3345L36.8015 8.98914L39.857 1.61182Z" fill="#070707"/>
<path d="M28.2422 0H31.7578V7.98523H28.2422V0Z" fill="#070707"/>
<path d="M20.1439 1.61133L23.1995 8.98865L19.9516 10.334L16.8956 2.9567L20.1439 1.61133Z" fill="#070707"/>
<path d="M10.0296 7.54395L15.6761 13.19L13.19 15.6761L7.54395 10.0296L10.0296 7.54395Z" fill="#070707"/>
<path d="M2.95578 16.896L10.3331 19.9516L8.98773 23.1999L1.61041 20.1438L2.95578 16.896Z" fill="#070707"/>
<path d="M43.1154 40.2924C45.4417 37.3321 46.6713 33.7729 46.6713 30.0001C46.6713 25.525 44.9222 21.3236 41.7462 18.1701C38.5712 15.017 34.3551 13.3004 29.8801 13.3292C25.4333 13.3608 21.2475 15.1607 18.094 18.3989C14.9377 21.639 13.2463 25.8751 13.3319 30.326C13.4019 33.9702 14.626 37.4108 16.8718 40.2759C18.8264 42.7703 19.9031 45.9536 19.9031 49.2394V49.4477H28.2422V37.5028H24.7224V33.9872H35.2775V37.5028H31.7578V49.4477H40.0969V49.2119C40.0969 45.9371 41.169 42.7698 43.1154 40.2924Z" fill="#070707"/>
<path d="M19.9031 52.9633H40.0969V60H19.9031V52.9633Z" fill="#070707"/>
</g>
<defs>
<clipPath id="clip0_635_44">
<rect width="60" height="60" fill="white"/>
</clipPath>
</defs>
</svg>
