<svg width="60" height="60" viewBox="0 0 60 60" fill="none" xmlns="http://www.w3.org/2000/svg">
<path d="M14.4578 28.1927V60H54.9397V28.1927H14.4578ZM34.6987 52.0483C33.1043 52.0483 31.8071 50.7511 31.8071 49.1567C31.8071 48.4261 32.0816 47.76 32.5301 47.2504V36.8674H36.8674V47.2504C37.3159 47.7599 37.5903 48.4261 37.5903 49.1567C37.5903 50.7511 36.2932 52.0483 34.6987 52.0483Z" fill="#070707"/>
<path d="M34.6987 0C25.5309 0 18.0722 7.45863 18.0722 16.6266H22.4095C22.4095 9.85031 27.9225 4.33746 34.6986 4.33746C41.4748 4.33746 46.988 9.85031 46.988 16.6266V23.8555H51.3253V16.6266C51.3253 7.45863 43.8667 0 34.6987 0Z" fill="#070707"/>
<path d="M13.735 14.4578H5.06027V18.7951H13.735V14.4578Z" fill="#070707"/>
<path d="M11.04 4.35787L7.97311 7.4248L14.1069 13.5586L17.1738 10.4917L11.04 4.35787Z" fill="#070707"/>
</svg>
